<svg width="66" height="62" viewBox="0 0 66 62" fill="none" xmlns="http://www.w3.org/2000/svg">
<path fill-rule="evenodd" clip-rule="evenodd" d="M50.2555 1C59.5837 1 65.6344 6.625 65.6344 15.2969V46.7031C65.6344 55.375 59.5837 61 50.2555 61H16.4723C7.1441 61 1.09338 55.375 1.09338 46.7031V15.2969C1.09338 6.625 7.1441 1 16.4723 1H50.2555Z" fill="white"/>
<path fill-rule="evenodd" clip-rule="evenodd" d="M50.2555 1C59.5837 1 65.6344 6.625 65.6344 15.2969V46.7031C65.6344 55.375 59.5837 61 50.2555 61H16.4723C7.1441 61 1.09338 55.375 1.09338 46.7031V15.2969C1.09338 6.625 7.1441 1 16.4723 1H50.2555Z" fill="white" stroke="#A4A4A4" stroke-width="0.5"/>
<path fill-rule="evenodd" clip-rule="evenodd" d="M33.3639 53C46.4337 53 57.029 43.1502 57.029 31C57.029 18.8497 46.4337 9 33.3639 9C20.2941 9 9.69885 18.8497 9.69885 31C9.69885 43.1502 20.2941 53 33.3639 53Z" fill="#3F4E56"/>
<mask id="mask0" mask-type="alpha" maskUnits="userSpaceOnUse" x="9" y="9" width="49" height="44">
<path fill-rule="evenodd" clip-rule="evenodd" d="M33.3639 53C46.4337 53 57.029 43.1502 57.029 31C57.029 18.8497 46.4337 9 33.3639 9C20.2941 9 9.69885 18.8497 9.69885 31C9.69885 43.1502 20.2941 53 33.3639 53Z" fill="white"/>
</mask>
<g mask="url(#mask0)">
<path fill-rule="evenodd" clip-rule="evenodd" d="M20.2449 50.947C20.2449 50.947 23.8707 27.3541 55.696 20.1254C87.5212 12.8967 45.4324 55.07 45.4324 55.07L22.8302 55.3855L20.2449 50.947Z" fill="#4687F4"/>
<path fill-rule="evenodd" clip-rule="evenodd" d="M41.292 21.9944C41.4842 21.9321 41.6977 21.9761 41.8437 22.1079L62.0722 40.3781L46.8628 54.295L19.9467 29.6712C19.6626 29.4113 19.7706 28.9645 20.147 28.8427L41.292 21.9944Z" fill="url(#paint0_linear)"/>
<g filter="url(#filter0_d)">
<path fill-rule="evenodd" clip-rule="evenodd" d="M22.7005 31.0578C21.042 30.2154 21.274 27.9368 23.0731 27.3988L38.9183 22.66C40.5645 22.1677 42.1311 23.5907 41.6399 25.1321L36.8685 40.1047C36.3312 41.791 33.8826 42.0578 32.9403 40.5328L29.091 34.3035L22.7005 31.0578Z" fill="#F5F5F5"/>
<mask id="mask1" mask-type="alpha" maskUnits="userSpaceOnUse" x="21" y="22" width="21" height="20">
<path fill-rule="evenodd" clip-rule="evenodd" d="M22.7005 31.0578C21.042 30.2154 21.274 27.9368 23.0731 27.3988L38.9183 22.66C40.5645 22.1677 42.1311 23.5907 41.6399 25.1321L36.8685 40.1047C36.3312 41.791 33.8826 42.0578 32.9403 40.5328L29.091 34.3035L22.7005 31.0578Z" fill="white"/>
</mask>
<g mask="url(#mask1)">
<path fill-rule="evenodd" clip-rule="evenodd" d="M27.0819 36.1486L44.9683 19.5338L15.5085 29.039L27.0819 36.1486Z" fill="#E1E1E1"/>
</g>
</g>
<path fill-rule="evenodd" clip-rule="evenodd" d="M37.3977 16C38.1403 16 38.7423 15.4404 38.7423 14.75C38.7423 14.0597 38.1403 13.5 37.3977 13.5C36.6551 13.5 36.0531 14.0597 36.0531 14.75C36.0531 15.4404 36.6551 16 37.3977 16ZM20.4417 35.2493C21.0358 35.2493 21.5174 34.8016 21.5174 34.2493C21.5174 33.6971 21.0358 33.2493 20.4417 33.2493C19.8476 33.2493 19.366 33.6971 19.366 34.2493C19.366 34.8016 19.8476 35.2493 20.4417 35.2493ZM33.9055 18.8643C34.2767 18.8643 34.5778 18.5845 34.5778 18.2393C34.5778 17.8941 34.2767 17.6143 33.9055 17.6143C33.5341 17.6143 33.2332 17.8941 33.2332 18.2393C33.2332 18.5845 33.5341 18.8643 33.9055 18.8643ZM16.7127 35.9232C17.084 35.9232 17.385 35.6434 17.385 35.2982C17.385 34.9531 17.084 34.6732 16.7127 34.6732C16.3414 34.6732 16.0404 34.9531 16.0404 35.2982C16.0404 35.6434 16.3414 35.9232 16.7127 35.9232ZM26.665 17.1481C27.0364 17.1481 27.3373 16.8683 27.3373 16.5231C27.3373 16.1779 27.0364 15.8981 26.665 15.8981C26.2938 15.8981 25.9927 16.1779 25.9927 16.5231C25.9927 16.8683 26.2938 17.1481 26.665 17.1481ZM23.4138 23C23.8593 23 24.2205 22.6642 24.2205 22.25C24.2205 21.8358 23.8593 21.5 23.4138 21.5C22.9682 21.5 22.607 21.8358 22.607 22.25C22.607 22.6642 22.9682 23 23.4138 23Z" fill="#BEE0FB"/>
</g>
<defs>
<filter id="filter0_d" x="16.5803" y="18.5609" width="32.1512" height="30.9761" filterUnits="userSpaceOnUse" color-interpolation-filters="sRGB">
<feFlood flood-opacity="0" result="BackgroundImageFix"/>
<feColorMatrix in="SourceAlpha" type="matrix" values="0 0 0 0 0 0 0 0 0 0 0 0 0 0 0 0 0 0 127 0"/>
<feOffset dx="1" dy="2"/>
<feGaussianBlur stdDeviation="3"/>
<feColorMatrix type="matrix" values="0 0 0 0 0 0 0 0 0 0 0 0 0 0 0 0 0 0 0.25 0"/>
<feBlend mode="normal" in2="BackgroundImageFix" result="effect1_dropShadow"/>
<feBlend mode="normal" in="SourceGraphic" in2="effect1_dropShadow" result="shape"/>
</filter>
<linearGradient id="paint0_linear" x1="24.5025" y1="31.067" x2="27.8308" y2="45.5537" gradientUnits="userSpaceOnUse">
<stop stop-opacity="0.1"/>
<stop offset="1" stop-opacity="0.01"/>
</linearGradient>
</defs>
</svg>
